<svg width="140" height="140" viewBox="0 0 140 140" fill="none" xmlns="http://www.w3.org/2000/svg">
<mask id="mask0_107_2" style="mask-type:luminance" maskUnits="userSpaceOnUse" x="11" y="10" width="119" height="120">
<path d="M11 9.99999H129.8V130H11V9.99999Z" fill="white"/>
</mask>
<g mask="url(#mask0_107_2)">
<path d="M14.9578 10.1136C13.7073 10.5094 12.7651 11.4432 12.3854 12.6703C12.2271 13.1694 12.2271 13.4307 12.2271 24.047C12.2271 34.7579 12.2271 34.924 12.3854 35.4386C12.7099 36.4916 13.612 37.4495 14.6568 37.8771L15.1161 38.0588L31.9917 38.0828L48.8667 38.0984L48.8984 41.4079C48.9303 44.9938 48.9459 45.1208 49.4369 46.5932C50.5688 50.0131 53.2599 52.7126 56.6713 53.8448C58.5552 54.4703 57.8588 54.4307 68.9797 54.486L78.9136 54.5255L79.3016 54.7156C79.824 54.9766 80.2672 55.436 80.5281 55.9823C80.726 56.4099 80.7339 56.4807 80.7579 58.1036L80.7896 59.7902H64.6817C48.8984 59.7902 48.5661 59.7902 48.0755 59.9484C47.1333 60.2334 46.3417 60.8907 45.8751 61.7615C45.3683 62.7194 45.3921 62.086 45.3921 73.7708C45.3921 80.6583 45.424 84.5375 45.4713 84.8146C45.7323 86.1916 46.888 87.411 48.2735 87.7834C48.6136 87.8782 52.9907 87.8938 74.9401 87.8938H101.195L101.179 100.18L101.156 112.475L100.934 112.926C100.625 113.559 100.055 114.051 99.3984 114.256C98.9473 114.398 98.662 114.415 97.0713 114.415H95.2588V109.91C95.2588 107.25 95.2271 105.239 95.1797 104.986C94.926 103.601 93.7787 102.389 92.3855 102.017C92.0369 101.922 86.1161 101.906 53.1093 101.906C18.4406 101.906 14.1901 101.922 13.7703 102.025C12.6937 102.31 11.8234 103.039 11.3089 104.083L11 104.717V127.2L11.2927 127.817C11.6885 128.648 12.3219 129.282 13.1531 129.678L13.7703 129.971L52.9115 129.994C91.6651 130.01 92.0609 130.01 92.5672 129.86C93.8183 129.48 94.7917 128.435 95.1401 127.121C95.2349 126.748 95.2588 126.163 95.2588 124.381V122.109L97.8151 122.07C100.071 122.046 100.435 122.022 100.997 121.872C103.491 121.223 105.398 119.98 106.863 118.04C107.773 116.829 108.382 115.467 108.739 113.86C108.897 113.116 108.905 112.942 108.928 100.505L108.96 87.8938L117.881 87.8782L126.801 87.8542L127.26 87.6724C128.305 87.2448 129.168 86.3266 129.524 85.2656L129.69 84.7588L129.675 73.6839L129.651 62.6006L129.358 61.9828C128.962 61.1516 128.329 60.5183 127.498 60.1224L126.88 59.8298L107.717 59.8058L88.5541 59.7902L88.5068 57.8266C88.4593 55.6812 88.3484 54.874 87.9765 53.7579C87.4541 52.2058 86.6625 50.9391 85.4516 49.7282C83.7891 48.0735 81.7948 47.0916 79.5073 46.8068C79.0797 46.7594 75.4547 46.7276 69.4391 46.7276C62.9005 46.7276 59.9167 46.7042 59.624 46.6407C58.5631 46.4188 57.5104 45.6194 57.0355 44.6771C56.6084 43.8303 56.5527 43.4104 56.5527 40.6083V38.0984H74.9005C95.1557 38.0984 93.7229 38.138 94.6093 37.6C95.1797 37.2594 95.7495 36.6656 96.0421 36.1194C96.5489 35.1694 96.5251 35.8027 96.5251 24.0703C96.5251 16.5339 96.5011 13.2803 96.438 12.987C96.1609 11.6651 95.1479 10.549 93.8579 10.1531C93.3432 9.99482 93.1927 9.99482 54.3047 10.0027C22.9047 10.0104 15.2109 10.0266 14.9578 10.1136ZM88.7683 24.047V30.4194H19.9047V17.674H88.7683V24.047ZM122.013 73.8422V80.2146H53.1489V67.4694H122.013V73.8422ZM87.5016 115.958V122.331H18.6385V109.585H87.5016V115.958Z" fill="#1498D5"/>
</g>
</svg>
